<svg width="239" height="289" viewBox="0 0 239 289" fill="none" xmlns="http://www.w3.org/2000/svg">
<path d="M54.8542 241.668H56.3381C57.8472 241.668 59.3691 241.757 60.9037 241.845C59.7147 241.3 58.6258 240.558 57.6824 239.651C56.8494 240.466 55.8954 241.146 54.8542 241.668Z" fill="#001541"/>
<path d="M0.992676 198.739V243.799C0.992676 243.799 4.21396 243.291 10.8341 242.759V230.812H17.7205C19.5467 230.812 19.9526 230.229 19.9526 229.43C19.9526 226.513 10.9482 226.513 10.9482 216.329C10.8833 215.097 11.0669 213.865 11.4879 212.706C11.9089 211.547 12.5588 210.484 13.3989 209.582C14.239 208.679 15.2522 207.954 16.3781 207.451C17.5039 206.948 18.7196 206.676 19.9526 206.652H31.8231V218.295H25.1649C24.8986 218.307 24.6461 218.417 24.4564 218.605C24.2666 218.792 24.1531 219.043 24.1377 219.309C24.1377 221.934 32.787 222.733 32.787 232.917C32.787 237.191 31.1509 240.26 28.1579 241.795C32.3431 241.655 37.0355 241.566 42.2225 241.554C40.4513 240.683 38.9585 239.334 37.9121 237.66C36.8657 235.987 36.3074 234.054 36.2999 232.08V206.513H47.7139V229.011C47.7139 232.296 48.5763 233.082 49.7811 233.082C50.9859 233.082 51.899 232.296 51.899 229.011V206.513H63.313V229.011C63.313 232.296 64.2261 233.082 65.4309 233.082C66.6357 233.082 67.4981 232.296 67.4981 229.011V206.513H78.9121V232.08C78.9121 237.28 75.285 241.249 70.3389 242.594C105.532 246.398 146.673 259.905 176.349 259.905C197.484 259.72 218.457 256.198 238.492 249.467V198.739H0.992676Z" fill="#001541"/>
<path d="M79.0646 232.118V206.513H67.6506V229.011C67.6506 232.296 66.7882 233.082 65.5834 233.082C64.3786 233.082 63.4655 232.296 63.4655 229.011V206.513H52.0515V229.011C52.0515 232.296 51.1384 233.082 49.9336 233.082C48.7288 233.082 47.8664 232.296 47.8664 229.011V206.513H36.4524V232.08C36.4599 234.054 37.0182 235.987 38.0646 237.66C39.1109 239.334 40.6038 240.683 42.375 241.554C46.2938 241.554 50.5043 241.554 55.0572 241.63C56.0966 241.115 57.0505 240.444 57.8853 239.639C58.8288 240.545 59.9176 241.287 61.1066 241.833C64.2391 241.985 67.4477 242.251 70.6943 242.594C75.4375 241.287 79.0646 237.318 79.0646 232.118Z" fill="white"/>
<path d="M32.7871 232.917C32.7871 222.771 24.1379 221.934 24.1379 219.309C24.1533 219.043 24.2668 218.792 24.4565 218.605C24.6463 218.417 24.8987 218.307 25.1651 218.295H31.8233V206.652H19.9527C18.7197 206.676 17.5041 206.948 16.3782 207.451C15.2523 207.954 14.2392 208.679 13.3991 209.582C12.559 210.484 11.9091 211.547 11.4881 212.706C11.067 213.865 10.8835 215.097 10.9484 216.329C10.9484 226.475 19.9527 226.475 19.9527 229.43C19.9527 230.229 19.5469 230.812 17.7207 230.812H10.8342V242.759C15.1462 242.403 20.9039 242.061 28.1581 241.833C31.1511 240.26 32.7871 237.191 32.7871 232.917Z" fill="white"/>
<path d="M8.2346 281.731H2.9588V287.159H8.2346V285.32L10.1877 285.726V286.74C10.2534 287.313 10.0993 287.888 9.75646 288.351C9.27605 288.686 8.68994 288.835 8.10778 288.77H3.0349C2.44869 288.836 1.85833 288.687 1.37353 288.351C1.03635 287.886 0.882807 287.312 0.942333 286.74V282.226C0.879848 281.658 1.03382 281.087 1.37353 280.628C1.85352 280.28 2.44661 280.126 3.0349 280.196H8.10778C8.69205 280.127 9.28091 280.281 9.75646 280.628C10.1021 281.084 10.2567 281.657 10.1877 282.226V283.037L8.2346 283.354V281.731Z" fill="#001541"/>
<path d="M36.6679 285.345H40.3458L38.5322 281.858L36.6679 285.345ZM32.8633 288.77L37.6191 280.196H39.5088L44.328 288.77H42.172L41.1574 286.905H35.8309L34.8544 288.77H32.8633Z" fill="#001541"/>
<path d="M75.0188 281.68H70.6181V284.065H75.0188C75.2615 284.087 75.5052 284.034 75.7164 283.912C75.7819 283.841 75.8316 283.757 75.8622 283.665C75.8928 283.573 75.9036 283.476 75.8939 283.38V282.352C75.9052 282.258 75.8951 282.162 75.8644 282.072C75.8336 281.982 75.7831 281.9 75.7164 281.833C75.5052 281.711 75.2615 281.658 75.0188 281.68V281.68ZM68.6777 288.77V280.197H75.8685C76.386 280.15 76.9032 280.289 77.327 280.59C77.4872 280.757 77.6097 280.957 77.6863 281.176C77.7629 281.394 77.7917 281.627 77.7709 281.858V283.874C77.7925 284.105 77.7641 284.338 77.6875 284.557C77.6109 284.776 77.4879 284.976 77.327 285.143C76.9049 285.448 76.3875 285.592 75.8685 285.548H74.7779L78.6586 288.782H75.8559L72.4824 285.536H70.6181V288.77H68.6777Z" fill="#001541"/>
<path d="M104.569 282.226C104.5 281.657 104.654 281.084 105 280.628C105.475 280.28 106.064 280.126 106.648 280.196H112.837C113.426 280.126 114.019 280.28 114.499 280.628C114.838 281.087 114.992 281.658 114.93 282.226V286.74C114.989 287.312 114.836 287.886 114.499 288.351C114.014 288.687 113.424 288.836 112.837 288.77H106.648C106.066 288.838 105.479 288.689 105 288.351C104.657 287.888 104.503 287.313 104.569 286.74V282.226ZM106.522 287.159H112.977V281.731H106.522V287.159Z" fill="#001541"/>
<path d="M139.241 288.77V280.196H141.207V287.159H147.51V288.77H139.241Z" fill="#001541"/>
<path d="M171.835 288.77V280.196H173.788V288.77H171.835Z" fill="#001541"/>
<path d="M198.036 288.77V280.196H199.38L205.303 285.269C205.506 285.447 205.683 285.599 205.836 285.751C205.988 285.903 206.127 286.056 206.254 286.208C206.254 285.726 206.254 285.383 206.191 285.181C206.127 284.978 206.191 284.825 206.191 284.724V280.196H207.941V288.77H206.609L200.433 283.468C200.281 283.342 200.154 283.215 200.04 283.101C199.929 283 199.827 282.89 199.736 282.771C199.736 283.037 199.736 283.291 199.736 283.519C199.736 283.747 199.736 283.963 199.736 284.141V288.77H198.036Z" fill="#001541"/>
<path d="M231.01 285.345H234.688L232.874 281.858L231.01 285.345ZM227.205 288.77L231.961 280.196H233.851L238.67 288.77H236.476L235.461 286.905H230.135L229.158 288.77H227.205Z" fill="#001541"/>
<path d="M238.619 257.242V266.5C238.619 266.5 200.573 273.589 166.42 269.848C132.266 266.106 98.9122 256.582 66.0653 256.392C44.5239 256.452 23.016 258.097 1.71582 261.313V253.234C1.71582 253.234 39.0649 248.707 71.9118 251.852C104.759 254.997 138.975 264.001 170.465 264.331C193.376 264.509 216.236 262.132 238.619 257.242V257.242Z" fill="#F26F21"/>
<path fill-rule="evenodd" clip-rule="evenodd" d="M200.864 234.553V242.936H211.987V239.854C217.225 244.242 225.328 244.293 228.474 243.076V230.698C226.914 231.966 218.328 234.629 217.783 225.625C218.1 218.815 225.113 219.056 228.474 220.933V208.111C227.475 207.728 226.422 207.505 225.354 207.451C219.114 207.058 215.982 208.72 211.733 212.321C211.327 212.651 210.96 212.994 210.592 213.349C208.575 208.999 203.439 206.754 198.303 206.906C195.197 206.951 192.186 207.982 189.704 209.848C185.899 206.475 177.098 205.156 172.786 210.356C165.722 201.998 150.313 208.821 149.362 217.661V242.911H160.916V221.097C161.214 220.553 161.658 220.102 162.197 219.795C162.737 219.488 163.352 219.338 163.972 219.36C164.584 219.325 165.193 219.463 165.729 219.759C166.266 220.055 166.707 220.497 167.003 221.034V242.835H178.316V221.085C178.582 220.159 180.243 219.373 181.461 219.373C182.066 219.376 182.66 219.539 183.183 219.844C183.706 220.149 184.139 220.585 184.441 221.11V242.911H195.5V234.579H200.864V234.553ZM198.328 219.829C198.826 219.79 199.325 219.888 199.772 220.111C200.219 220.335 200.597 220.676 200.864 221.097V224.775H195.716V221.059C195.98 220.635 196.357 220.291 196.805 220.068C197.253 219.844 197.753 219.748 198.252 219.791L198.328 219.829Z" fill="white"/>
<path fill-rule="evenodd" clip-rule="evenodd" d="M113.18 243.038H124.594V220.59C124.594 217.318 125.507 216.544 126.724 216.544C127.942 216.544 128.791 217.318 128.791 220.59V243.038H140.205V217.534C140.205 211.104 134.663 206.551 127.891 206.551C124.543 206.491 121.301 207.722 118.836 209.988C116.375 207.723 113.137 206.492 109.793 206.551C103.021 206.551 97.4663 211.104 97.4663 217.534V243.038H108.88V220.59C108.88 217.318 109.755 216.544 110.947 216.544C112.14 216.544 113.065 217.318 113.065 220.59V243.038H113.18Z" fill="white"/>
<path fill-rule="evenodd" clip-rule="evenodd" d="M82.5647 243.038H94.0294V206.551H82.5647V243.038Z" fill="white"/>
<path d="M65.3301 142.73L65.4001 142.66C65.4396 142.593 65.4635 142.518 65.4701 142.44C65.5016 141.997 65.4472 141.552 65.3101 141.13C65.1786 140.402 64.9777 139.689 64.7101 139C64.5201 138.62 64.2901 138.26 64.0701 137.9C63.5901 137.11 63.0701 136.34 62.5601 135.57C61.4576 134.017 60.4362 132.408 59.5001 130.75C58.6751 129.47 58.2536 127.972 58.2901 126.45C58.4435 125.745 58.7982 125.099 59.3111 124.592C59.8241 124.084 60.4733 123.736 61.1801 123.59C61.711 123.425 62.2522 123.294 62.8001 123.2C68.0801 122.31 69.4801 126.59 69.7401 130.68C69.8601 132.54 70.2401 140.31 72.2301 139.58C74.4801 138.75 73.0901 127.53 72.9701 125.08C72.9681 122.477 72.5943 119.887 71.8601 117.39C71.0901 115.15 68.3001 111.69 69.4301 109.17C70.2501 107.35 73.2701 106.58 74.7401 108.17C75.9801 109.48 75.1401 110.61 75.1901 112.02C75.2421 116.628 76.1053 121.191 77.7401 125.5C80.1701 131.59 86.0001 140.61 93.0001 141.9C103.43 143.82 105.17 129.9 104.53 122.69C104.39 121.12 103.85 118.69 105.01 117.25C106.94 114.88 108.87 116.85 109.01 118.97C109.19 121.45 107.87 124.4 107.94 127.06C108.02 129.99 108.34 133.41 109.94 135.93C114.94 143.93 125.94 141.36 131.19 135.16C134.245 131.593 136.371 127.326 137.38 122.74C137.77 120.74 137.33 115.53 140.65 116.33C143.2 116.94 142.08 118.57 141.57 120.59C140.43 125.08 138.98 130.54 141.26 134.98C143.01 138.4 146.18 139.12 149.26 140.68C149.67 138.11 148.53 132.87 151.32 131.81C151.744 131.675 152.192 131.631 152.635 131.681C153.077 131.731 153.504 131.874 153.888 132.101C154.271 132.327 154.602 132.632 154.859 132.996C155.117 133.359 155.294 133.773 155.38 134.21C155.87 136.47 153.77 137.21 153.19 139.08C152.26 142.03 153.84 142.62 156.31 142.31C162.2 141.57 165.41 135.31 167.89 130.62C168.84 128.82 169.68 124.19 171.58 123.53C177.33 121.53 171.99 129.89 171.49 131.35C170.2 135.14 168.69 148.45 176.35 144.4C180.64 142.13 183.75 135.55 186.71 131.93C189.08 129.03 192.01 126.44 194.23 123.47C196.45 120.5 198.23 116.47 200.23 113.13C201.81 110.58 203.23 104.45 207.12 104.63C207.691 104.663 208.245 104.832 208.737 105.122C209.23 105.411 209.646 105.814 209.952 106.297C210.258 106.78 210.445 107.328 210.496 107.898C210.548 108.467 210.464 109.04 210.25 109.57C209.57 111.32 207.78 111.74 206.52 112.9C203.87 115.33 202.01 119.39 199.93 122.41C198.62 124.32 196.32 126.73 196.04 129.15C195.81 131.08 197.22 132.34 196.32 134.3C195.79 135.47 194.25 135.57 193.55 136.47C193.045 137.275 192.705 138.172 192.55 139.11C192.3 140.11 191.97 141.17 191.78 142.23C191.656 142.648 191.692 143.097 191.88 143.49C192.241 143.96 192.693 144.351 193.21 144.64C193.61 144.89 194.06 145.05 194.48 145.27C194.991 145.504 195.414 145.895 195.687 146.386C195.961 146.877 196.07 147.442 196 148C196 150 194.27 150.87 193.28 152.31C190.931 155.824 188.252 159.105 185.28 162.11C182.68 164.65 174.28 170.02 177.82 173.92C175.46 176.62 168.1 177.48 164.73 178.23C160.18 179.23 155.59 179.86 151.03 180.63C141.43 182.25 131.17 182.36 121.46 182.41C110.469 182.566 99.4801 182.014 88.5601 180.76C84.9501 180.32 63.6201 177.96 63.4301 174.49C67.6401 172.33 65.5501 170.08 63.6501 166.62C62.4001 164.33 61.1401 162.05 59.8301 159.79C56.7201 154.4 51.9501 150.05 49.4601 144.39C46.4001 137.46 43.8501 130.45 40.0101 123.88C38.1734 120.562 36.1155 117.371 33.8501 114.33C32.4501 112.56 28.4501 109.33 31.3601 106.49C34.7801 103.13 37.3601 109.9 38.2801 111.83C40.5588 116.204 43.1383 120.414 46.0001 124.43C49.0001 128.76 51.8301 133.27 55.0001 137.43C56.3701 139.21 58.3001 141.73 60.0601 141.84C60.641 141.893 61.2265 141.866 61.8001 141.76C62.0401 141.71 62.2801 141.56 62.5301 141.52C62.7981 141.497 63.0667 141.556 63.3001 141.69C63.5724 141.809 63.8363 141.946 64.0901 142.1C64.4101 142.27 64.6401 142.59 64.9501 142.75C65.0107 142.776 65.0765 142.788 65.1424 142.784C65.2083 142.781 65.2725 142.762 65.3301 142.73ZM81.3901 151.64C80.9301 151.23 80.2501 150.79 79.9101 150.9C79.8542 150.915 79.8029 150.945 79.761 150.985C79.7192 151.025 79.6879 151.075 79.6701 151.13C79.6701 151.3 79.8101 151.44 79.9801 151.49C80.148 151.516 80.3102 151.57 80.4601 151.65C80.7001 151.85 80.6201 152.23 80.7001 152.53C80.9601 153.53 82.4401 153.1 81.7701 152.06C81.6562 151.909 81.529 151.768 81.3901 151.64V151.64ZM107.23 143.35C107.209 143.164 107.125 142.99 106.992 142.858C106.86 142.725 106.686 142.641 106.5 142.62C106.833 143.402 107.356 144.09 108.02 144.62C108.038 144.352 107.972 144.085 107.83 143.858C107.688 143.63 107.478 143.452 107.23 143.35ZM42.4401 126L42.2301 125.65C42.0901 125.42 41.9501 125.12 42.1201 124.92C42.201 124.847 42.3061 124.806 42.4151 124.806C42.5241 124.806 42.6292 124.847 42.7101 124.92C42.8738 125.061 43.0008 125.239 43.0801 125.44C44.2401 127.87 45.5101 130.04 46.6701 132.44C47.1886 133.572 47.8878 134.612 48.7401 135.52C49.2001 135.99 48.9001 136.59 49.2801 137.03C49.4601 137.24 50.0301 138.56 50.2801 138.55C52.5601 138.45 49.2801 131.01 48.8001 130.25C46.5601 126.33 43.2301 122.95 40.6801 119.25C38.7601 116.45 37.2001 113.45 35.3201 110.65C34.6501 109.65 33.8201 106.28 31.7001 108.55C31.4276 108.899 31.2587 109.317 31.2127 109.758C31.1667 110.198 31.2455 110.642 31.4401 111.04C31.6701 111.75 34.4401 113.83 35.1301 114.92C36.5901 117.26 37.8401 119.7 39.2601 122.05C41.2001 125.28 42.8701 128.68 44.5801 132.05C45.0901 133.05 45.5201 134.05 46.0001 135.11C46.2001 135.53 47.1401 138.02 47.7301 137.79C47.8201 137.744 47.9041 137.687 47.9801 137.62C48.0218 137.588 48.0727 137.571 48.1251 137.571C48.1774 137.571 48.2284 137.588 48.2701 137.62C48.3067 137.659 48.3311 137.707 48.3401 137.76C48.3401 138.01 48.2301 138.13 48.2001 138.34C48.1998 138.583 48.2301 138.825 48.2901 139.06C48.3401 139.33 48.4401 140.23 48.8301 140.26C49.5001 140.26 48.7201 137.31 48.6001 136.94C48.1556 135.721 47.5859 134.551 46.9001 133.45C46.2301 132.33 45.5001 131.25 44.8001 130.16C44.1001 129.07 43.6201 128.05 43.0001 127.02C42.8501 126.58 42.6401 126.26 42.4401 126ZM82.2601 155.14C82.2798 155.079 82.3188 155.027 82.3712 154.991C82.4237 154.955 82.4865 154.937 82.5501 154.94C82.6824 154.958 82.8088 155.006 82.9201 155.08C83.0526 155.159 83.2058 155.198 83.3601 155.19C83.438 155.18 83.5089 155.14 83.5575 155.078C83.6061 155.016 83.6286 154.938 83.6201 154.86C83.5701 154.68 83.3301 154.65 83.1401 154.63C82.9501 154.61 81.0501 153.55 81.0101 153.63C80.6101 154.11 81.5301 154.63 81.8301 154.85C81.8569 154.862 81.8806 154.88 81.8996 154.903C81.9186 154.925 81.9325 154.952 81.9401 154.98C81.9401 155.1 81.7801 155.13 81.6601 155.11C78.8701 154.66 76.7501 152.7 74.0901 151.92C72.0874 151.442 70.0032 151.418 67.9901 151.85C66.9901 152 65.9901 152.18 64.9901 152.27C64.5739 152.365 64.1465 152.402 63.7201 152.38C63.1401 152.22 63.7201 151.97 63.6001 151.69C63.6001 151.59 63.4301 151.59 63.3301 151.61C62.9301 151.69 62.5201 151.87 62.1101 151.98C61.7504 152.098 61.3777 152.172 61.0001 152.2C60.6101 152.2 60.2301 152.09 59.8501 152.11C59.8208 152.101 59.7894 152.101 59.7601 152.11C59.75 152.136 59.75 152.164 59.7601 152.19C59.7664 152.273 59.7989 152.351 59.8528 152.414C59.9068 152.477 59.9794 152.521 60.0601 152.54C60.7401 152.75 61.7201 152.65 62.3201 153.09C63.6201 154.02 63.5401 156.17 64.5401 156.8C65.1901 155.04 65.7701 158.05 66.9901 156.5L66.7201 156.29C65.4901 155.29 64.6101 153.58 66.5601 152.85C67.307 152.581 68.1149 152.529 68.8901 152.7C69.2852 152.784 69.6658 152.926 70.0201 153.12C70.1801 153.2 71.3701 153.74 70.5401 153.9C70.2401 153.96 69.6801 153.82 69.8001 154.33C69.8801 154.61 70.3901 154.89 70.6001 155.05C70.9952 155.313 71.3577 155.622 71.6801 155.97C71.8801 156.21 72.2301 156.66 71.9901 156.97C71.5901 157.5 69.4801 156.2 68.9901 155.97C68.0108 155.557 67.1159 154.967 66.3501 154.23C66.1501 154.01 65.7201 153.75 65.5701 154.23C65.4901 154.49 65.8001 154.8 65.9501 154.97C66.4055 155.442 66.9237 155.849 67.4901 156.18C69.0249 157.082 70.6341 157.852 72.3001 158.48C73.1441 158.875 74.025 159.187 74.9301 159.41C74.979 159.414 75.0247 159.436 75.0595 159.471C75.0942 159.505 75.1156 159.551 75.1201 159.6C75.1201 159.74 74.9701 159.82 74.8301 159.84C73.7325 159.832 72.6514 159.572 71.6701 159.08C70.7109 158.618 69.7052 158.259 68.6701 158.01C67.8501 157.88 67.0301 157.77 66.2201 157.66C65.8401 157.66 63.6501 156.92 64.2201 158.05C64.4001 158.43 64.5601 158.53 64.5001 158.99C64.4731 159.314 64.3395 159.62 64.1201 159.86C64.0179 159.971 63.892 160.057 63.7518 160.113C63.6115 160.168 63.4605 160.191 63.3101 160.18C63.0201 160.18 62.6301 159.74 62.3101 159.81C62.2531 159.831 62.2032 159.867 62.166 159.915C62.1288 159.962 62.106 160.02 62.1001 160.08C62.0001 160.766 62.0001 161.464 62.1001 162.15C62.1189 162.379 62.1867 162.601 62.2989 162.801C62.411 163.001 62.5649 163.175 62.7501 163.31C63.3401 163.58 63.6101 162.86 63.7501 162.44C63.9855 161.74 64.3482 161.089 64.8201 160.52C65.6001 159.61 66.0501 160.42 66.6001 161.12C68.1587 163.169 70.0359 164.955 72.1601 166.41L72.6601 166.73C73.4301 167.22 75.6601 169.17 76.6601 169C78.0101 168.77 77.4401 168 77.9601 166.92C78.9601 166.66 80.9601 168.83 82.1801 169.17C83.4001 169.51 85.0101 169.28 86.2901 169.55C89.2901 170.2 91.9601 171.82 94.9501 172.48C99.2451 173.398 103.611 173.943 108 174.11C111.85 174.27 115.67 173.62 119.51 173.68C120.06 173.68 120.6 173.68 121.14 173.76C121.642 173.743 122.143 173.814 122.62 173.97C122.647 173.981 122.671 173.998 122.69 174.02C122.706 174.043 122.715 174.071 122.715 174.1C122.715 174.129 122.706 174.157 122.69 174.18C122.36 174.5 121.53 174.53 121.1 174.62C120.67 174.71 120.01 174.71 119.73 175.01C119.73 175.36 120.73 175.58 121 175.63C121.642 175.73 122.292 175.76 122.94 175.72C123.66 175.72 124.37 175.61 125.08 175.53C125.411 175.472 125.745 175.436 126.08 175.42C126.395 175.471 126.718 175.43 127.01 175.3C127.077 175.227 127.123 175.137 127.14 175.04C127.158 174.942 127.148 174.842 127.11 174.75C127.078 174.596 126.993 174.458 126.87 174.36C126.73 174.293 126.575 174.266 126.42 174.28C125.868 174.371 125.367 174.659 125.01 175.09C124.973 175.134 124.922 175.164 124.866 175.175C124.809 175.186 124.751 175.177 124.7 175.15C124.669 175.122 124.647 175.084 124.638 175.043C124.629 175.002 124.633 174.959 124.65 174.92C124.692 174.848 124.746 174.783 124.81 174.73C125.814 174.085 126.961 173.697 128.15 173.6C130.53 173.16 132.95 172.94 135.36 172.72L138.36 172.47C138.874 172.45 139.386 172.39 139.89 172.29C144.45 171.07 153.34 171.47 157.05 168.04C156.88 168.2 148.44 167.77 147.22 167.79C143.78 167.86 136.91 169.07 134.27 166.67C137.75 166.73 141.08 167.53 144.65 167.24C148.49 166.94 152.33 166.34 156.16 165.9C161.54 165.29 167.5 166.05 172.5 163.48C174.2 165.23 170 168.61 175.69 166.48C176.39 166.21 179.31 163.95 179.83 164.12C179.32 165.26 177.17 166.59 176.08 167.12C177 168.49 189.78 158.61 189.55 156.03C188.26 155.93 185.01 161.03 183.46 161.66C183.72 160.83 185.22 159.77 185.81 159.15C183.81 158.15 182.28 160.42 180.33 157.1C180.04 156.6 179.79 155.74 179.53 155.36C178.95 154.54 177.65 153.62 176.96 152.52C176.73 152.76 176.74 155.33 176.6 156.52C173.9 154.23 176.13 158.01 173.09 159.73C170.747 160.876 168.246 161.665 165.67 162.07C160.01 163.01 153.35 163.22 150.23 157.71C149.67 158.39 149.76 159.12 150.51 159.92C146.34 160.4 143.93 160.29 139.76 161.61C135.98 162.8 132.58 160.78 129.06 161.53C129.061 161.653 129.094 161.774 129.156 161.881C129.217 161.987 129.304 162.077 129.41 162.14C126.14 162.58 127.2 160.14 124.86 159.06C123.2 158.28 120.65 159.16 118.73 158.66C113.92 157.41 109.84 152.96 105.45 151.66C103.6 151.13 105.95 150.39 103.77 151.28C103.35 151.45 102.23 153.99 101.67 154.48C99.7701 156.12 97.0401 156.57 94.6001 156.84C91.5429 157.267 88.4371 157.203 85.4001 156.65C84.8501 156.52 82.2301 155.77 82.2601 155.11V155.14ZM149.5 141.83C145.04 139.42 140.97 138.83 139.41 133.06C138.53 129.84 142.03 118.81 140.58 117.83C140.58 118.59 140.31 119.03 139.7 119.15C139.89 116.8 138.61 119.82 138.36 120.4C137.969 121.708 137.688 123.046 137.52 124.4C137.046 127.042 136.323 129.634 135.36 132.14C134.442 134.196 133.075 136.021 131.36 137.48C130.645 138.058 129.886 138.579 129.09 139.04L127.49 140.04C127 140.384 126.482 140.685 125.94 140.94C125.47 141.13 125.04 141.43 124.55 141.62C124.369 141.665 124.199 141.746 124.05 141.86C124.05 141.86 124.05 141.92 124.05 141.94C124.372 141.932 124.688 141.846 124.97 141.69C125.31 141.56 125.67 141.45 125.97 141.33L127.97 140.65C129.188 140.207 130.443 139.872 131.72 139.65C133.735 139.349 135.792 139.534 137.72 140.19C138.11 140.32 145.28 142.55 145.13 142.93C142.35 142.23 139.73 141.19 136.94 140.49C132.64 139.41 129.21 141.02 125.17 142.26C118.97 144.17 113.94 142.38 107.9 141.51C108.65 140.59 110.45 141.15 111.4 141.38C111.65 141.44 112.83 141.89 113 141.65C113.17 141.41 112.31 140.86 112.11 140.73L110.88 139.88C110.019 139.266 109.288 138.488 108.73 137.59C107.57 135.64 107.73 133.66 107.05 131.59C105.99 132.08 106.62 137.87 105.98 139.04C105.61 139.71 102.42 143.04 101.54 141.81C101.67 141.99 102.99 140.94 103.12 140.81C103.588 140.349 103.983 139.82 104.29 139.24C105.165 137.443 105.72 135.508 105.93 133.52C106.08 132.52 106.19 131.6 106.32 130.64C106.401 130.183 106.458 129.723 106.49 129.26C106.592 128.675 106.774 128.106 107.03 127.57C107.595 125.553 107.967 123.487 108.14 121.4C108.23 120.46 108.45 118.03 106.89 118.19C103.69 118.53 105.2 133.31 104.15 136.66C102.53 141.77 97.6401 143.41 92.6101 142.86C89.8399 142.554 87.2073 141.492 85.0001 139.79C84.3401 139.3 80.0001 134.53 80.0001 134.55C79.5501 134.72 77.4001 140.23 76.8301 140.98C74.5001 144.03 73.8301 143.87 77.4901 145.46C82.7401 147.71 86.7501 144.59 92.1501 144.82C91.6701 145.24 89.3501 145.04 88.8501 145.15C86.8501 145.62 85.0901 147.15 83.0401 147.43C82.0401 147.54 77.5401 146.16 77.1901 146.65C77.5601 147.2 81.0901 150.12 81.9001 150.22C83.7201 150.44 85.0501 149.22 86.6201 148.22C89.4131 146.522 92.5294 145.426 95.7701 145C96.8889 144.741 98.048 144.707 99.1801 144.9C103.43 145.59 100.63 146.19 102.92 144.14C104.14 143.05 103.98 140.96 106.4 141.54C108.82 142.12 107.63 143.66 109 144.81C109.64 145.35 109.41 146.21 110.29 146.6C111.48 147.13 113.9 146.01 115.19 145.8C117.037 145.414 118.931 145.306 120.81 145.48C124.34 145.89 127.81 146.91 131.35 147.3C134.89 147.69 150.12 147.83 149.5 141.78V141.83ZM168.42 138.03C168.28 137.64 168.13 136.9 167.6 136.85C167.22 136.85 167.1 137.54 167.04 137.79C166.848 138.35 166.607 138.892 166.32 139.41C166.32 139.41 166.32 139.5 166.22 139.51C166.193 139.516 166.166 139.513 166.14 139.503C166.115 139.492 166.094 139.473 166.08 139.45C166.024 139.353 165.994 139.242 165.994 139.13C165.994 139.018 166.024 138.907 166.08 138.81C166.61 137.51 166.91 136.14 167.44 134.81C167.72 134.12 168.03 133.44 168.35 132.81C168.598 132.397 168.816 131.965 169 131.52C169.051 131.253 169.128 130.992 169.23 130.74C169.285 130.615 169.383 130.515 169.506 130.456C169.629 130.397 169.769 130.384 169.9 130.42C169.951 130.512 169.971 130.617 169.959 130.721C169.946 130.825 169.901 130.923 169.83 131C169.693 131.156 169.542 131.3 169.38 131.43C169.13 131.69 169.17 131.97 169.11 132.29C169.01 132.79 168.9 133.29 168.8 133.79C168.692 134.279 168.608 134.773 168.55 135.27C168.55 135.51 168.32 136.37 168.48 136.55C168.9 137.05 169.11 135.95 169.17 135.76C169.31 135.34 169.49 134.92 169.65 134.51C170.04 133.51 170.44 132.6 170.85 131.65C171.26 130.7 171.78 129.52 172.22 128.45C172.717 127.598 173.031 126.651 173.14 125.67C173.15 125.589 173.142 125.506 173.116 125.428C173.09 125.35 173.047 125.279 172.99 125.22C172.812 125.126 172.61 125.089 172.41 125.112C172.21 125.135 172.022 125.218 171.87 125.35C170.56 126.35 169.78 128.29 169.11 129.71C168.44 131.13 167.91 132.58 167.2 133.96C165.39 137.44 163.93 141.27 159.98 142.72C158.14 143.4 156.53 142.92 154.74 143.34C153.88 143.55 153.74 143.08 152.8 143.58C152.18 143.92 149.87 147.21 150.31 148.01C153.42 148.2 153.72 148.11 156.19 149.49C156.82 149.84 159.54 152.06 160.19 150.77C160.25 150.64 156.99 148.77 157.58 147.26C159.07 149.1 160.88 149.47 163.04 149.62C164.19 149.7 165.87 148.89 166.96 149.62C168.35 150.52 168.02 151.88 169.63 152.57C171.24 153.26 174.63 152.4 175.46 151C175.82 150.41 176.46 149.32 175.46 149C175.045 148.923 174.622 148.896 174.2 148.92C173.64 148.92 173.14 148.75 172.59 148.69C172.39 148.69 172.16 148.63 172.09 148.44C172.02 148.25 172.91 147.55 173.16 147.44C173.762 147.212 174.421 147.184 175.04 147.36C175.64 147.534 176.27 147.585 176.89 147.51C177.215 147.417 177.533 147.3 177.84 147.16C177.96 147.098 178.096 147.073 178.23 147.09C178.263 147.095 178.295 147.106 178.323 147.124C178.352 147.141 178.377 147.164 178.396 147.191C178.416 147.218 178.43 147.248 178.437 147.281C178.445 147.313 178.446 147.347 178.44 147.38C178.44 147.54 178.17 147.6 178.15 147.77C178.13 147.94 178.45 148.02 178.61 147.89C180.11 146.671 181.4 145.215 182.43 143.58C183.07 142.58 184.56 140.49 183.88 139.22C183.813 139.116 183.736 139.019 183.65 138.93C182.23 141.038 180.392 142.831 178.25 144.2C177.17 144.945 175.942 145.45 174.65 145.68C173.34 145.84 170.65 144.41 169.99 144.68C169.33 144.95 170.67 146.43 170.68 146.44C169.03 147.93 169.35 142.18 169.29 141.88C169.094 140.567 168.803 139.271 168.42 138V138.03ZM80.3301 177.07C78.7697 176.788 77.2346 176.38 75.7401 175.85C73.3401 175 71.2201 173.71 68.9301 172.64C68.5301 172.46 67.4601 171.77 66.9301 171.95C66.8501 172.95 65.6801 173.51 65.6001 174.32C67.8901 177.78 80.7101 178.55 84.4001 179.06C92.5201 180.19 100.54 180.64 108.77 181.18C117.002 181.683 125.258 181.617 133.48 180.98C137.1 180.71 140.74 180.69 144.35 180.29C146.98 180 149.63 179.83 152.26 179.54C154.47 179.29 157.44 179.23 159.4 178.07C159.71 177.89 159.91 177.41 159.63 177.19C157.15 177 154.63 178.12 152.17 178.19C150.52 178.25 148.88 178.41 147.24 178.58C144.57 178.86 141.88 179.36 139.24 179.49C133.08 179.77 127 179.9 120.8 179.98C116.52 180.033 112.243 179.96 107.97 179.76C101.62 179.48 95.2801 178.93 88.9701 178.18C86.0501 177.85 83.1701 177.61 80.3301 177.07ZM112.9 151.56C113.96 153.99 117.9 155.91 120.46 155.86C121.95 155.86 122.95 154.66 124.46 155.13C125.97 155.6 125.99 156.9 127.1 157.66C131.64 160.76 139.34 158.3 141.03 152.95C138.4 151.95 132.75 152.75 129.71 152.55C124.08 152.19 118.59 151.16 112.9 151.56ZM150.19 175.77C148.63 177.18 143.63 176.77 141.7 176.86C138.34 177.01 135.03 177.09 131.7 177.24C123.458 177.713 115.196 177.746 106.95 177.34C102.936 177.062 98.9437 176.521 95.0001 175.72C93.0001 175.31 80.1301 169.96 79.1101 170.91C80.0342 171.856 81.076 172.68 82.2101 173.36C79.8701 176.85 69.5801 167.96 68.5901 167.71C68.3501 171.31 82.3501 177.46 84.9101 174.86C84.7901 174.63 83.9101 173.41 84.0501 173.16C88.4301 173.63 92.5201 176.35 96.9301 177.05C103.55 178.05 110.2 177.91 116.87 178.05C123.54 178.19 129.87 178.11 136.49 177.97C140.05 177.89 150.2 179.56 152.86 176.55C152.43 175.95 152 175.37 151.56 174.78C151.98 174.29 158.11 175.96 158.72 175.89C162.51 175.44 165.63 172.98 169.55 172.61C167.55 170.82 159.67 174.42 157.37 174.27C155.47 174.15 153.67 173.38 151.79 173.02C151.3 172.93 147.98 171.76 147.72 173.02C147.37 174.68 149.64 174.69 150.19 175.77ZM68.7901 138.94C68.8127 138.601 68.7685 138.262 68.6601 137.94C68.5501 137.37 68.4601 136.8 68.3601 136.23C68.1001 134.75 67.8301 133.28 67.5101 131.81C67.3001 130.89 66.5101 125.93 64.7701 126.49C64.3261 126.69 63.9705 127.046 63.7701 127.49C63.5601 127.91 63.7701 128.44 63.4801 128.81C63.4446 128.87 63.3892 128.916 63.3235 128.94C63.2578 128.964 63.1858 128.964 63.1201 128.94C63.0591 128.906 63.0102 128.853 62.9801 128.79C62.6601 128.24 62.6701 127.46 61.9801 127.13C61.2901 126.8 61.0801 128.07 60.7401 128.31C60.6758 128.356 60.5989 128.38 60.5201 128.38C60.4413 128.38 60.3644 128.356 60.3001 128.31C60.1613 128.171 60.0628 127.998 60.0152 127.807C59.9676 127.617 59.9728 127.418 60.0301 127.23C60.2191 127.012 60.4832 126.872 60.7701 126.84C61.7701 126.56 62.9401 126.66 63.9801 126.32C64.291 126.201 64.5566 125.987 64.7396 125.709C64.9226 125.431 65.0137 125.103 65.0001 124.77C65.0001 124.64 65.0001 124.48 64.8901 124.41C64.8209 124.395 64.7493 124.395 64.6801 124.41C64.4407 124.371 64.1955 124.421 63.9901 124.55C63.5596 124.957 63.0277 125.24 62.4501 125.37C61.8136 125.465 61.1666 125.465 60.5301 125.37C60.4018 125.34 60.2684 125.34 60.1401 125.37C59.8701 125.45 59.7601 125.72 59.6701 125.96C57.9601 130.02 63.1201 133.12 64.3301 136.5C65.1684 138.971 65.771 141.516 66.1301 144.1C66.3301 145.4 66.1301 150.21 67.1901 151.1C68.5801 149.97 67.9601 147.98 67.4401 146.57C66.9201 145.16 65.7901 143.25 66.0201 141.57C66.0201 141.26 66.1701 140.84 66.5001 140.73C66.5158 140.723 66.5328 140.719 66.5501 140.719C66.5674 140.719 66.5844 140.723 66.6001 140.73C66.6701 140.73 66.6901 140.83 66.7001 140.9C66.6789 141.451 66.7327 142.003 66.8601 142.54C66.9482 142.797 67.0984 143.028 67.2972 143.213C67.4961 143.398 67.7375 143.531 68.0001 143.6C69.3501 143.93 69.6401 142.92 69.4101 141.94C69.1201 140.72 67.2301 139.71 66.5901 138.47C66.2828 137.781 66.0838 137.049 66.0001 136.3C65.9301 135.88 65.2501 135.01 65.5301 134.6C65.567 134.566 65.6151 134.548 65.6651 134.548C65.7151 134.548 65.7632 134.566 65.8001 134.6C65.8865 134.659 65.9528 134.742 65.9901 134.84C66.4311 135.734 66.8217 136.652 67.1601 137.59C67.2301 137.8 67.4601 139.01 67.7901 138.95C67.8342 138.936 67.8734 138.909 67.9035 138.874C67.9335 138.839 67.9531 138.796 67.9601 138.75C67.9811 138.662 68.0148 138.578 68.0601 138.5C68.1201 138.43 68.2501 138.4 68.3001 138.5C68.3153 138.545 68.3153 138.595 68.3001 138.64C68.2998 138.743 68.3202 138.845 68.3601 138.94C68.3601 139.04 68.4801 139.14 68.5801 139.13C68.607 139.135 68.6346 139.133 68.6608 139.125C68.6869 139.118 68.7111 139.104 68.7313 139.086C68.7515 139.068 68.7673 139.045 68.7775 139.02C68.7877 138.994 68.792 138.967 68.7901 138.94ZM149.92 151.23C148.81 157.11 155.22 157.63 159.4 157.33C160.86 157.23 173.24 154.69 172.12 153C168.31 153 164.38 154 160.61 153.11C157.69 152.4 153 149.44 149.92 151.23ZM195.05 128.94C196.28 123.94 200.3 119.94 203.3 115.94C203.876 115.209 204.404 114.44 204.88 113.64C205.27 112.94 205.32 111.83 205.95 111.3C206.58 110.77 207.77 110.95 208.37 110.21C209.73 108.54 209.53 105.68 206.58 106.09C203.63 106.5 200.31 115.71 198.64 118.18C197.56 119.79 196.55 121.45 195.56 123.12C193.67 126.36 191.1 127.51 195.05 128.94V128.94ZM76.3701 133.82C76.3701 133.82 75.3701 125.31 75.2301 124.05C75.0101 122.4 75.6301 115.05 73.4701 114.05C70.8301 112.93 73.1501 120.05 73.2801 120.94C73.7001 123.69 73.4901 126.53 74.0201 129.24C74.5101 131.75 76.0201 134.24 75.8101 136.9C75.7301 137.83 71.9101 143.56 74.0901 142.9C79.1701 141.41 78.2701 124.75 76.2401 125.38C76.2401 128 77.8301 131.33 76.3701 133.82ZM190.24 137C190.45 137.18 185.24 143.56 184.46 144.59C183.35 145.98 181.34 147.78 181.01 149.59C181.079 151.06 181.29 152.52 181.64 153.95C182.42 149.46 185.64 145.4 188.37 141.95C189.68 140.26 191.04 138.58 192.37 136.95C192.83 136.35 192.52 135.39 192.81 135.07C193.1 134.75 194.21 134.84 194.32 134.68C194.71 134.223 194.984 133.68 195.119 133.095C195.255 132.51 195.248 131.902 195.1 131.32C194.83 130.45 193.51 128.68 191.81 128.95C188.63 129.47 192.96 131.65 192.87 131.31C193.03 131.93 193.62 136 191.54 135.42C190 134.99 193.54 129.62 189.72 133.9C189.04 134.65 187.37 140.73 187.04 140.65C187.919 139.281 188.997 138.05 190.24 137V137ZM113.85 148C113.84 148.06 113.808 148.113 113.76 148.15C113.674 148.222 113.571 148.27 113.46 148.29C112.53 148.64 110.72 151.29 112.8 150.64C114.64 150.06 113.14 149.38 114.44 148.51C115.74 147.64 115.36 147.39 116.96 147.85C116.74 147.79 121.45 152.62 121.82 150.72C120.2 149.52 118.58 148.33 116.94 147.16C120.67 147.16 124.25 149.46 128.18 149.67C131.01 149.83 133.8 148.94 136.64 148.99C139.69 149.05 141.71 149.7 144.53 147.66C143.88 146.46 139.34 148.05 137.86 148.2C134.982 148.431 132.087 148.338 129.23 147.92C126.23 147.57 123.23 146.65 120.28 146.43C118.67 146.32 110.84 147.13 110.91 148.57C111.634 148.499 112.341 148.306 113 148C113.25 147.88 113.55 147.75 113.78 147.9C113.815 147.923 113.84 147.959 113.85 148V148ZM120.96 148.88C124.18 151.99 142.27 155.46 143.38 148.8C141 150.35 140.2 150.35 137.49 150.06C134.6 149.75 132.73 150.34 129.83 150.46C128.173 150.566 126.511 150.376 124.92 149.9C123.25 149.42 120.81 147.51 119.21 147.8C119.64 148.31 120.24 149 121 148.87L120.96 148.88ZM152 137.26C152.53 137.26 153.95 137.55 153.89 136.52C153.89 135.89 151.89 136.28 152.1 135.69C152.15 135.54 152.74 135.89 152.69 135.26C152.46 135.2 152.25 135.26 152.05 135.07C151.85 134.88 151.8 134.77 151.66 134.63C151.534 134.511 151.384 134.418 151.221 134.358C151.058 134.298 150.884 134.271 150.71 134.28C150.64 134.28 150.573 134.305 150.52 134.35C150.475 134.41 150.454 134.485 150.46 134.56C150.4 135.86 150.87 137.26 150.6 138.56C150.553 138.405 150.463 138.267 150.341 138.161C150.219 138.055 150.07 137.985 149.91 137.96C149.45 138.31 149.77 139.19 149.91 139.64C150.165 140.305 150.254 141.023 150.17 141.73C150.04 142.26 149.9 142.79 149.79 143.34C149.456 144.495 149.268 145.688 149.23 146.89C149.23 147.19 150.23 146.51 150.31 146.42C150.671 145.939 150.964 145.411 151.18 144.85C151.877 143.574 152.242 142.144 152.24 140.69C152.271 139.9 152.473 139.125 152.83 138.42C152.448 138.121 152.16 137.718 152 137.26ZM98.2401 152.43C97.7301 150.7 87.8501 151.26 86.3701 152.11C88.1701 154.47 96.1201 154.19 98.2401 152.43ZM170.4 168.43C170.4 166.62 171.86 165.72 172.4 164.23C170.3 164.44 166.12 166.11 164.89 167.94C166.32 168 169.11 168.72 170.4 168.44V168.43ZM101.4 148.29C100.34 148.03 94.8701 148.53 95.2901 150.47C95.6201 152.04 99.0601 149.47 99.1201 149.58C96.8301 152.88 102 150.89 101.44 148.3L101.4 148.29ZM69.7001 109.92C69.5987 110.157 69.5476 110.412 69.5501 110.67C69.4801 113.67 74.8501 113.58 73.9101 110.52C73.6001 109.52 72.1801 109.92 71.4501 109.63C71.0539 109.442 70.6044 109.4 70.1801 109.51C69.9838 109.587 69.8257 109.738 69.7401 109.93L69.7001 109.92ZM79.2701 149.7C77.2101 146.7 73.6201 149.7 75.7501 151.31C77.4501 152.58 78.8301 150 79.3101 149.71L79.2701 149.7ZM84.2701 151.32C86.0701 152.92 91.1601 148.26 92.8201 147.08C90.3201 146.26 86.2001 149.92 84.3401 151.33L84.2701 151.32ZM137.4 159.13C139.24 158.473 140.967 157.536 142.52 156.35C143.02 155.59 142.61 152.94 142.42 152.28C142.17 152.5 137.45 159.09 137.47 159.14L137.4 159.13ZM165.71 176.21C165.42 176.28 165.2 176.38 165.16 176.53C165.157 176.553 165.16 176.576 165.169 176.597C165.178 176.618 165.192 176.636 165.21 176.65C165.54 176.95 166.21 176.78 166.58 176.79C167.086 176.768 167.587 176.681 168.07 176.53C169.07 176.28 170.07 175.81 171.07 175.53C172.14 175.363 173.199 175.129 174.24 174.83C174.675 174.649 175.032 174.319 175.248 173.9C175.464 173.481 175.525 173 175.42 172.54C175.42 172.44 175.3 172.31 175.19 172.35L175.11 172.4C173.652 173.574 171.987 174.463 170.2 175.02C169.28 175.38 168.34 175.68 167.4 175.96C167.19 176.06 166.35 176.08 165.78 176.22L165.71 176.21ZM60.1801 150.4C61.4301 149.83 57.3201 148.95 56.8501 148.71C56.0801 148.33 54.6201 146.51 53.8501 147.11C53.4001 147.45 53.7601 148.26 53.9501 148.64C54.1401 149.02 54.2401 149.11 54.3401 149.36C54.4401 149.61 54.4801 150 54.7901 150.22C54.8559 150.271 54.9367 150.299 55.0201 150.3C55.1033 150.288 55.1799 150.248 55.2365 150.186C55.2931 150.124 55.3262 150.044 55.3301 149.96C55.334 149.793 55.2962 149.628 55.2201 149.48C55.1601 149.3 55.1001 149.09 55.2201 148.95C55.3401 148.81 56.7301 149.33 57.0201 149.42C58.7801 149.96 59.4201 151.71 61.6601 150.83C61.2045 150.579 60.6991 150.433 60.1801 150.4V150.4ZM146.26 155.68C144.59 156.25 141.82 158.68 140.34 159.68C140.5 159.91 144.22 158.95 144.61 158.68C146.07 157.64 146 158.32 146.26 155.68ZM123.75 141.84C123.767 141.811 123.776 141.778 123.776 141.745C123.776 141.712 123.767 141.679 123.75 141.65L123.27 141.74C121.867 141.885 120.453 141.885 119.05 141.74L116.19 141.67L114.76 141.61C114.34 141.61 113.92 141.49 113.51 141.49C113.484 141.48 113.456 141.48 113.43 141.49C113.43 141.49 113.43 141.59 113.49 141.62C114.085 142.039 114.77 142.312 115.49 142.42C116.412 142.576 117.345 142.653 118.28 142.65C119.252 142.66 120.224 142.61 121.19 142.5C122.044 142.503 122.885 142.297 123.64 141.9C123.68 141.887 123.717 141.866 123.75 141.84V141.84ZM94.4101 146.64C94.4039 146.652 94.4007 146.666 94.4007 146.68C94.4007 146.694 94.4039 146.708 94.4101 146.72C94.4427 146.73 94.4775 146.73 94.5101 146.72C94.9301 146.72 95.3201 146.51 95.7301 146.5C96.0674 146.519 96.4022 146.569 96.7301 146.65C97.4901 146.76 98.2501 146.89 99.0101 147.02L100.89 147.38C100.97 147.38 101.63 147.61 101.7 147.55C101.51 144.55 96.6001 145.85 94.8501 146.23C94.6601 146.34 94.4201 146.45 94.4101 146.64V146.64ZM52.9101 139C52.6201 138 52.6601 136.07 51.9101 135.21C50.5601 136.82 52.5101 141.47 52.9101 139ZM62.0001 146.16C62.0001 145.88 61.7301 145.6 61.4401 145.27C61.1501 144.94 60.9001 144.2 60.4401 144.06C60.3805 144.044 60.3171 144.052 60.2631 144.082C60.2091 144.112 60.1686 144.161 60.1501 144.22C60.0201 144.52 60.3801 145.02 60.4201 145.36C60.4601 145.7 60.4901 145.97 60.5401 146.28C60.6082 146.888 60.7596 147.483 60.9901 148.05C61.6301 149.44 62.9301 149.11 63.9901 148.38C63.1001 147.76 62.1101 148.01 61.1201 147.44C60.8801 147.3 61.5001 146.8 61.5701 146.75C61.9001 146.54 62.0001 146.35 62.0001 146.16ZM104.82 148.87C104.791 148.958 104.771 149.048 104.76 149.14C104.768 149.201 104.794 149.259 104.835 149.305C104.876 149.352 104.93 149.385 104.99 149.4C105.052 149.41 105.115 149.403 105.173 149.38C105.231 149.357 105.282 149.319 105.32 149.27C105.419 149.104 105.468 148.913 105.46 148.72C105.55 148.2 106.03 147.88 106.38 147.54C106.401 147.514 106.426 147.493 106.456 147.477C106.485 147.462 106.517 147.452 106.55 147.45C106.65 147.45 106.71 147.56 106.74 147.66C106.75 147.847 106.75 148.033 106.74 148.22C106.74 148.42 107.09 149.02 107.33 148.96C108.24 148.75 107.05 146.96 106.74 146.69C105.66 145.69 104.74 147.13 104.8 148.2C104.847 148.42 104.853 148.647 104.82 148.87V148.87ZM188.3 148.65C187.893 148.833 187.505 149.054 187.14 149.31C186.684 149.767 186.284 150.277 185.95 150.83L185.36 151.71C185.276 151.824 185.215 151.953 185.18 152.09C185.163 152.159 185.168 152.231 185.193 152.297C185.218 152.363 185.262 152.42 185.32 152.46C185.378 152.494 185.443 152.512 185.51 152.512C185.577 152.512 185.643 152.494 185.7 152.46C185.802 152.374 185.89 152.273 185.96 152.16C186.27 151.69 186.58 151.23 186.96 150.79C187.34 150.35 187.69 149.5 188.43 149.45C188.77 149.45 189.34 149.59 189.57 149.25C189.8 148.91 189.57 148.51 189.36 148.25C188.794 147.642 188.389 146.904 188.18 146.1C188.11 144.8 189.45 144.7 189.42 143.19C189.42 143.34 188.53 144.03 188.42 144.19C188.199 144.446 188.02 144.737 187.89 145.05C187.815 145.259 187.787 145.482 187.808 145.703C187.829 145.924 187.898 146.138 188.01 146.33C188.32 146.92 189.29 147.87 188.59 148.5L188.3 148.65ZM87.1501 154.9C86.9101 156.31 94.0101 155.76 94.8401 155.72C95.6701 155.68 95.0101 155.21 94.5201 155.23C94.0301 155.25 93.7801 155.43 93.3801 155.44C92.5595 155.413 91.7413 155.337 90.9301 155.21C89.6773 155.032 88.4151 154.928 87.1501 154.9ZM190 150.51C189.68 150.71 187.52 153.77 187.73 154.24C188.46 153.93 191.73 150.14 189.81 149.71L190 150.51ZM49.8001 140.37C49.8001 141.47 49.1701 144.72 50.7001 145.09C50.4801 143.44 51.2501 141.53 49.8001 140.37ZM108.29 145.5C107.06 146.81 111.52 151.66 111.38 151.99C110.6 150.25 109.6 146.84 108.29 145.5V145.5ZM64.0901 143.9H64.0001C63.2101 144.04 64.1401 145.51 64.1701 145.9C64.1701 146.05 64.1701 146.19 64.1701 146.33C64.2057 146.606 64.3023 146.87 64.4528 147.103C64.6033 147.337 64.8039 147.534 65.0401 147.68C65.1594 147.774 65.308 147.824 65.4601 147.82C65.7101 147.82 65.7501 147.33 65.6701 147.14C65.5901 146.95 65.1901 146.78 65.0501 146.55C64.5901 145.77 65.7301 146.2 65.9101 145.83C65.9901 145.68 65.8401 145.51 65.7001 145.41C65.4386 145.233 65.2227 144.996 65.0701 144.72C65.0064 144.499 64.9085 144.29 64.7801 144.1C64.6882 144.016 64.5782 143.954 64.4585 143.919C64.3388 143.885 64.2127 143.878 64.0901 143.9V143.9ZM58.6401 153.31C59.0301 152.73 54.9501 150.79 54.5201 150.73C54.8001 151.69 57.6601 152.93 58.6401 153.31V153.31ZM157.05 169.7C157.38 169.91 161.55 170.34 161.67 170.04C161.79 169.74 157.6 169.47 157.05 169.7V169.7ZM103 150.61C103.034 150.517 103.074 150.427 103.12 150.34C103.27 150.06 103.51 149.84 103.68 149.57C103.85 149.3 104.36 148.82 104.33 148.57C104.33 148.03 103.94 147.69 103.33 147.57C103.166 148.045 103.045 148.533 102.97 149.03C102.89 149.55 102.97 150.34 102.48 150.66C102.28 150.78 102.01 150.84 101.92 151.05C101.885 151.137 101.885 151.233 101.92 151.32C101.978 151.415 102.07 151.485 102.177 151.517C102.285 151.548 102.4 151.539 102.5 151.49C102.694 151.372 102.842 151.193 102.92 150.98L103 150.61ZM150.22 133.82C150.863 133.113 151.691 132.601 152.61 132.34C151.3 131.31 150.14 132.51 150.18 133.82H150.22ZM56.5701 145.15C57.5701 146.15 58.1501 144.51 57.6601 144.15C57.1201 144.14 56.7601 144.46 56.5701 145.15ZM194.93 149.6C194.832 149.188 194.758 148.771 194.71 148.35C194.559 148.453 194.432 148.587 194.338 148.743C194.243 148.899 194.184 149.073 194.163 149.255C194.142 149.436 194.16 149.619 194.217 149.793C194.273 149.966 194.367 150.126 194.49 150.26L194.93 149.6ZM61.7201 161.51C62.3301 161.25 60.4801 159.14 60.4701 159.13C60.2501 159.54 61.5201 161.32 61.7201 161.51ZM155.1 134.66C155.57 133.9 154.55 133.14 154.1 132.85C154.06 133.26 154.63 134.57 155.1 134.66ZM192.19 145C191.63 144.8 190.52 145 191.61 146.19C191.868 145.828 192.064 145.426 192.19 145V145ZM169.84 169.8C169.25 169.9 168.67 170 168.08 170.05C167.49 170.1 167.08 170.1 166.64 170.1H164.15V170.53C164.15 170.76 168.09 171.06 168.44 171.06C169.191 171.094 169.943 170.996 170.66 170.77C171.349 170.649 172.021 170.445 172.66 170.16C172.714 170.134 172.761 170.094 172.796 170.045C172.831 169.997 172.853 169.94 172.86 169.88C172.86 169.67 172.6 169.58 172.39 169.56C171.534 169.529 170.677 169.607 169.84 169.79V169.8ZM55.7601 146.09C57.0101 147.09 56.2501 145.48 55.7601 145.09C55.3201 145.87 56.3801 145.51 55.7601 146.09ZM61.9601 150.45C61.7101 150.89 61.9601 151.26 62.3601 151.54C62.4416 151.455 62.4984 151.349 62.5244 151.234C62.5504 151.119 62.5446 150.999 62.5076 150.887C62.4706 150.775 62.4038 150.675 62.3144 150.598C62.225 150.521 62.1164 150.47 62.0001 150.45H61.9601ZM56.6801 143.37C56.2101 143.23 55.9701 144 55.9901 144.25C56.6201 144.22 56.8401 143.92 56.6801 143.37ZM162.2 177.43C162.05 176.81 160.96 177.5 161.04 177.58C161.38 177.88 161.77 177.83 162.2 177.43ZM144.57 150.19C144.51 149.64 144.25 149.38 143.79 149.42C143.84 150.51 144.1 150.77 144.57 150.19ZM173.65 153.89C173.637 153.81 173.597 153.737 173.537 153.683C173.477 153.628 173.401 153.596 173.32 153.59C173.154 153.578 172.988 153.612 172.84 153.69C172.638 153.789 172.45 153.913 172.28 154.06C172.17 154.16 172.08 154.28 171.97 154.39C171.501 154.811 170.934 155.107 170.32 155.25C170.155 155.273 169.997 155.33 169.856 155.418C169.715 155.506 169.594 155.622 169.5 155.76C169.5 155.76 170.42 155.68 170.5 155.66C170.845 155.554 171.18 155.417 171.5 155.25C171.9 155.06 172.36 154.99 172.74 154.77C173.12 154.55 173.68 154.19 173.65 153.89V153.89ZM192.46 152.14C192.95 151.62 192.93 151.26 192.46 151.06V152.14ZM162.68 177.23C162.45 177.14 162.33 177.23 162.3 177.44C162.54 177.55 162.66 177.51 162.68 177.23V177.23Z" fill="#001541"/>
<path d="M199.54 131.47C199.59 128.68 200.2 126 203.54 125.3C204.206 125.158 204.895 125.161 205.561 125.307C206.226 125.453 206.852 125.74 207.398 126.148C207.943 126.556 208.395 127.076 208.723 127.673C209.051 128.27 209.248 128.931 209.3 129.61C209.93 135.83 199.33 137 199.54 131.47ZM204.54 133.39C204.22 131.39 208.54 130.51 205.98 128.55C204.37 127.31 202.78 128.87 201.98 130.12C198.83 134.77 206.71 135.12 208.04 131.55C207.34 131.44 205.58 133.29 204.54 133.39Z" fill="#001541"/>
<path d="M47.2699 108.73C47.1399 102.95 56.5999 104.34 54.7299 109.82C53.4799 113.47 46.5999 113 47.2699 108.73ZM51.0899 106.17C49.7599 104.42 46.8999 108.44 48.4799 110.26C49.3799 111.26 51.0199 112.59 51.9299 110.87C52.2199 110.32 53.0099 107.15 51.9299 107.11C51.5599 107.11 51.4899 107.7 51.4199 107.97C51.3499 108.24 51.4799 108.57 51.4199 108.89C51.3599 109.21 51.1299 109.2 50.9099 109.18C50.6204 109.132 50.3443 109.023 50.0999 108.86L49.2999 108.38C49.1025 108.286 48.9309 108.145 48.7999 107.97C48.3899 107.25 49.2899 107.08 49.7499 106.97C50.0237 106.955 50.2918 106.887 50.5399 106.77C50.6999 106.74 51.1999 106.33 51.0899 106.17Z" fill="#001541"/>
<path d="M160.36 119.4C160.68 116.01 165.45 114.63 166.94 118.11C169.12 123.18 159.86 125.26 160.36 119.4ZM166.44 118.23C166.232 118.189 166.017 118.199 165.814 118.258C165.61 118.317 165.424 118.424 165.27 118.57C165.16 118.94 165.96 118.97 165.81 119.34C163.54 119.34 163.32 118.55 161.92 120.63C161.89 120.439 161.805 120.261 161.675 120.117C161.545 119.973 161.377 119.87 161.19 119.82C160.24 119.82 162.82 121.7 163.27 121.82C164.93 122.1 168 120.4 166.44 118.23V118.23ZM162.44 118.5C162.53 118.05 165.56 119.5 165.07 118.42C164.87 118.42 161.98 116.03 161.86 117.93C162.017 118.157 162.218 118.351 162.45 118.5H162.44Z" fill="#001541"/>
<path d="M85.9999 162.87C85.8599 164.15 93.8699 162.32 94.1699 163.33C93.2499 163.33 88.7299 163.16 90.7699 164.03C87.1477 164.957 83.4183 165.397 79.6799 165.34C78.2399 165.27 76.8199 164.34 75.3999 164.34C74.2499 164.34 74.7699 165.09 73.3399 165.23C73.0899 165.23 71.6999 164.42 71.8499 164.17C74.2399 165.09 73.5699 163.86 75.5099 163.78C76.5899 163.73 77.8299 164.43 78.8899 164.52C79.9499 164.61 87.4199 165.01 87.8199 163.79C86.2499 163.72 80.2699 164.29 79.1099 163.28C79.8299 162.28 86.4299 162.41 87.7499 162.28C91.9326 161.912 96.1315 161.758 100.33 161.82C102.43 161.9 118.12 163.14 118.11 163.32C117.59 163.32 113.57 163.09 113.6 163.48C114.24 163.94 114.65 163.43 115.13 163.6C115.61 163.77 115.62 164.21 115.13 164.48C114.679 164.55 114.221 164.55 113.77 164.48C113.15 164.48 105.77 163.77 106.19 165.07C106.39 165.74 109.71 165.07 110.19 165.07C112.5 165.07 114.81 165.19 117.12 165.29C119.03 165.36 121.31 165.04 123.17 165.54C125.713 166.378 128.309 167.046 130.94 167.54C136.94 168.44 143 168.3 149.14 168.96C147.97 170.64 144.14 170.75 142.41 171.03C140.08 171.41 137.94 172.28 135.68 172.58C130.22 173.32 124.29 173.02 118.79 173.15C113.29 173.28 107.5 173.85 102.03 172.61C98.5099 171.81 95.8099 170.93 96.1199 167.61C92.4999 168.36 93.6899 170.46 95.5099 171.88C94.7499 172.34 92.2199 170.68 91.8499 170.5C90.4999 169.81 88.4399 170.31 89.9699 167.85C91.0299 166.17 99.7799 164.77 101.76 164.29C101.29 163.45 95.9199 164.5 95.1499 164.05C96.8799 161.45 107.6 165.25 108.38 163.24C101.22 161.31 93.3799 162.87 85.9999 162.87ZM102.84 165.33H103.23C103.333 165.345 103.437 165.345 103.54 165.33C103.591 165.32 103.639 165.299 103.681 165.268C103.722 165.237 103.756 165.196 103.78 165.15C103.792 165.09 103.787 165.027 103.764 164.97C103.74 164.913 103.701 164.864 103.65 164.83C103.548 164.767 103.43 164.732 103.31 164.73C102.172 164.714 101.048 164.982 100.04 165.51C99.1375 165.93 98.2595 166.401 97.4099 166.92C99.3999 167.44 101 165.41 102.87 165.33H102.84ZM113 163.52C112.661 163.319 112.281 163.196 111.888 163.161C111.495 163.127 111.099 163.181 110.73 163.32C111.027 163.61 111.416 163.789 111.829 163.825C112.243 163.861 112.657 163.754 113 163.52V163.52ZM92.4799 169C91.5699 169.39 91.5699 169.82 92.4799 170.3V169ZM108.67 163.22C108.89 163.63 109.78 163.62 110.17 163.46C110.33 163.39 109.1 163.05 108.67 163.22ZM103.54 164.27C103.25 163.86 103.12 163.85 102.73 164.18C103 164.33 103 164.33 103.54 164.27Z" fill="#001541"/>
<path d="M168 163.51C169.022 163.248 170.025 162.914 171 162.51C172.811 161.684 174.762 161.205 176.75 161.1C176.809 161.09 176.87 161.09 176.93 161.1C177.09 161.17 177.12 161.37 177.13 161.54C177.043 161.65 176.934 161.741 176.81 161.807C176.686 161.872 176.55 161.911 176.41 161.92C175.41 162.12 174.48 162.1 173.48 162.23C172.48 162.36 171.68 162.54 170.79 162.74C168.72 163.2 166.66 163.74 164.59 164.21C163.176 164.551 161.744 164.808 160.3 164.98C159.723 165.05 159.141 165.07 158.56 165.04C158.1 165.04 157.63 165.04 157.16 165.04C156.921 165.059 156.683 164.992 156.49 164.85C156.457 164.827 156.431 164.795 156.415 164.758C156.4 164.721 156.394 164.68 156.4 164.64C156.441 164.573 156.505 164.523 156.58 164.5C157.46 164.15 158.32 164.4 159.19 164.17C159.62 164.05 160.04 163.93 160.46 163.79C160.879 163.616 161.286 163.416 161.68 163.19C161.817 163.117 161.966 163.071 162.121 163.055C162.275 163.04 162.431 163.055 162.58 163.1C162.727 163.18 162.886 163.237 163.05 163.27C163.34 163.27 163.55 163.02 163.77 162.84C163.993 162.654 164.263 162.533 164.55 162.49C164.694 162.452 164.848 162.469 164.98 162.54C165.043 162.578 165.09 162.637 165.112 162.707C165.134 162.777 165.13 162.853 165.1 162.92C165 163.07 164.73 163.13 164.77 163.3C164.81 163.47 164.87 163.43 164.95 163.47C165.943 163.766 166.999 163.78 168 163.51Z" fill="#001541"/>
<path d="M140.4 164.61C141.29 163.81 151.61 163.36 151.71 163.72C148.56 165.07 143.69 165.67 140.4 164.61Z" fill="#001541"/>
<path d="M88.4501 143.85C86.3201 144.03 75.4501 146.56 77.2501 142.48C78.7401 139.17 88.6201 143.38 88.4501 143.85Z" fill="#001541"/>
<path d="M141.08 139.89C138.48 139.89 137.3 135.34 135.98 133.89C135.461 135.042 134.589 135.998 133.49 136.62C133.92 135.43 135 134.14 135.56 132.97C136.31 131.42 136.62 127.49 137.88 126.47C137.35 134.09 140.8 138.81 147.6 141.86C143.6 143.44 138.78 135.86 137.6 133.23C136 133.23 140.7 139.55 141.08 139.89Z" fill="#001541"/>
<path d="M145.51 142.78C145.798 142.833 146.08 142.917 146.35 143.03C146.283 143.085 146.204 143.122 146.119 143.139C146.034 143.156 145.947 143.152 145.864 143.127C145.781 143.103 145.706 143.058 145.644 142.998C145.582 142.937 145.536 142.862 145.51 142.78V142.78Z" fill="#001541"/>
<path d="M166.86 146.9C165.71 147.45 159.81 146.97 161.33 145.7C162.51 144.72 166.86 144.88 166.86 146.9Z" fill="#001541"/>
<path d="M21.6932 76.2884C21.4086 77.5484 21.1749 78.6458 21.0022 79.5603C20.8425 80.4116 20.7575 81.2752 20.7482 82.1413C20.7119 83.0534 20.8833 83.9618 21.2494 84.7979C21.6155 85.6341 22.1669 86.3761 22.8617 86.968C24.264 88.1603 26.3437 88.7564 29.1008 88.7564C30.812 88.8285 32.5147 88.4796 34.0596 87.7403C35.3169 87.0783 36.4051 86.1361 37.2401 84.9865C38.1214 83.7804 38.8073 82.4431 39.2724 81.0236C39.7766 79.4696 40.1938 77.8887 40.5223 76.2884L47.8487 41.14H55.6831L48.1433 76.4611C47.5917 79.128 46.7536 81.7274 45.6436 84.2143C44.5355 86.6394 42.9371 88.8087 40.9491 90.5855C38.6532 92.57 35.9671 94.0515 33.0638 94.9346C29.1827 96.0937 25.1428 96.6321 21.0936 96.5299C14.4887 96.5299 9.60785 95.4528 6.45104 93.2986C3.29423 91.1444 1.71582 87.8283 1.71582 83.3505C1.76809 80.7801 2.02634 78.218 2.48809 75.6888C3.00632 72.5794 3.66681 69.2262 4.52037 65.6087L9.77382 41.14H29.2736L21.6932 76.2884Z" fill="#001541"/>
<path d="M64.5946 41.14H83.2815L73.1201 88.604H90.6485L89.1345 95.8694H52.9598L64.5946 41.14Z" fill="#001541"/>
<path d="M141.08 47.6942H127.23L116.956 95.8695H98.3508L108.604 47.7247H94.9061L96.4608 41.1706H142.543L141.08 47.6942Z" fill="#001541"/>
<path d="M190.088 54.1467C190.105 57.4912 189.113 60.763 187.243 63.5358C185.353 66.4149 182.223 68.5996 177.854 70.0899L187.853 95.8694H168.637L161.057 72.0104H160.112L155.031 95.8694H136.426L148.05 41.1705H170.71C173.215 41.1632 175.716 41.3228 178.199 41.6481C180.35 41.8987 182.436 42.5392 184.357 43.5382C186.08 44.4599 187.523 45.8289 188.533 47.5011C189.649 49.5326 190.187 51.831 190.088 54.1467ZM165.284 66.4725C166.711 66.4954 168.089 65.9508 169.115 64.9584C170.2 63.9145 171.076 62.6729 171.696 61.3003C172.369 59.8309 172.847 58.28 173.119 56.687C173.383 55.2826 173.53 53.8583 173.556 52.4294C173.591 51.1094 173.323 49.7989 172.773 48.5985C172.255 47.5824 171.137 47.0032 169.42 47.0032H165.538L161.23 66.4725H165.284Z" fill="#001541"/>
<path d="M238.67 95.8695H218.51L217.311 82.1719H201.408L195.311 95.8695H186.949L212.352 41.1706H232.766L238.67 95.8695ZM204.213 75.8515H216.701L214.669 52.4802L204.213 75.8515Z" fill="#001541"/>
<path d="M26.2559 27.4119C25.5095 27.7701 24.7333 28.1284 23.9273 28.4866C23.1511 28.815 22.3152 29.1135 21.4196 29.3822C20.524 29.621 19.5389 29.8151 18.4641 29.9643C17.4193 30.1136 16.2699 30.1882 15.0161 30.1882C11.0157 30.1882 7.92591 29.2926 5.74662 27.5014C3.59718 25.7102 2.52246 22.7249 2.52246 18.5454C2.52246 16.1273 2.89563 13.8585 3.64196 11.7389C4.38829 9.58944 5.49287 7.72361 6.95568 6.14138C8.41849 4.5293 10.2246 3.26053 12.3741 2.33508C14.5235 1.40963 16.9864 0.946899 19.7628 0.946899C21.0763 0.946899 22.2704 1.03646 23.3452 1.21558C24.4497 1.3947 25.4349 1.63353 26.3006 1.93206C27.1962 2.20074 27.9874 2.49927 28.674 2.82766C29.3905 3.15605 30.0323 3.46951 30.5995 3.76804L28.9874 12.0971H20.927C20.9569 11.7986 20.9867 11.4105 21.0166 10.9328C21.0763 10.4552 21.1211 9.97753 21.1509 9.49988C21.1808 8.99237 21.2106 8.49979 21.2405 8.02214C21.2704 7.54449 21.2853 7.14147 21.2853 6.81308C21.2853 6.57425 21.2704 6.30557 21.2405 6.00704C21.2106 5.67865 21.136 5.36519 21.0166 5.06666C20.8972 4.76813 20.7031 4.5293 20.4345 4.35018C20.1956 4.14121 19.8672 4.03672 19.4493 4.03672C18.6731 4.03672 17.9566 4.36511 17.2999 5.02188C16.6729 5.6488 16.1057 6.49962 15.5982 7.57434C15.0907 8.61921 14.6429 9.81334 14.2548 11.1567C13.8667 12.5001 13.5383 13.8734 13.2697 15.2765C13.0308 16.6498 12.8368 18.0081 12.6875 19.3515C12.5681 20.6949 12.5084 21.8741 12.5084 22.8891C12.5084 23.1876 12.5233 23.5608 12.5532 24.0086C12.583 24.4564 12.6726 24.8893 12.8219 25.3072C12.9711 25.7252 13.195 26.0834 13.4936 26.3819C13.8219 26.6805 14.2548 26.8297 14.7922 26.8297C15.7176 26.8297 16.6132 26.2625 17.479 25.1281C18.3447 23.9638 19.106 21.9039 19.7628 18.9485H28.0471L26.2559 27.4119Z" fill="#F26F21"/>
<path d="M54.4526 29.83H44.7801L47.4669 17.1573H41.9589L39.2721 29.83H29.5997L35.645 1.3947H45.3622L42.7202 13.754H48.1834L50.8254 1.3947H60.5874L54.4526 29.83Z" fill="#F26F21"/>
<path d="M84.232 29.83H73.7534L73.1265 22.71H64.8422L61.6628 29.83H57.3192L70.5293 1.3947H81.1421L84.232 29.83ZM66.32 19.441H72.8131L71.7831 7.26088L66.32 19.441Z" fill="#F26F21"/>
<path d="M114.26 8.15648C114.26 9.91783 113.767 11.5448 112.782 13.0375C111.797 14.5302 110.17 15.6646 107.901 16.4408L113.095 29.83H103.11L99.1689 17.4259H98.6763L96.0343 29.83H86.3618L92.4071 1.3947H104.184C105.558 1.3947 106.856 1.48426 108.08 1.66338C109.304 1.81265 110.364 2.14103 111.259 2.64854C112.185 3.12619 112.916 3.81282 113.454 4.70842C113.991 5.57417 114.26 6.72352 114.26 8.15648ZM101.363 14.56C102.139 14.56 102.796 14.3063 103.333 13.7988C103.901 13.2614 104.348 12.6196 104.677 11.8732C105.035 11.1269 105.289 10.3358 105.438 9.49988C105.587 8.63413 105.662 7.8878 105.662 7.26088C105.662 6.48469 105.528 5.82792 105.259 5.29056C104.99 4.72335 104.408 4.43974 103.513 4.43974H101.497L99.2585 14.56H101.363Z" fill="#F26F21"/>
<path d="M120.744 1.3947H130.462L125.178 26.0685H134.268L133.507 29.83H114.699L120.744 1.3947Z" fill="#F26F21"/>
<path d="M152.914 0.946899C155.481 0.946899 157.556 1.27529 159.138 1.93206C160.75 2.58883 162.019 3.60385 162.944 4.9771C163.541 5.90255 164.004 6.94742 164.333 8.1117C164.661 9.27598 164.825 10.6194 164.825 12.1419C164.825 13.4554 164.706 14.769 164.467 16.0825C164.228 17.3961 163.885 18.6649 163.437 19.8888C163.019 21.083 162.497 22.2174 161.87 23.2921C161.273 24.337 160.601 25.2624 159.855 26.0685C158.451 27.591 156.824 28.6657 154.974 29.2926C153.152 29.8897 150.899 30.1882 148.212 30.1882C145.615 30.1882 143.525 29.9196 141.943 29.3822C140.36 28.8448 139.106 27.9791 138.181 26.785C137.524 25.9491 137.002 24.8893 136.614 23.6056C136.255 22.3219 136.076 20.7098 136.076 18.7693C136.076 15.4556 136.659 12.5001 137.823 9.9029C139.017 7.27581 140.704 5.201 142.883 3.67848C144.196 2.75303 145.659 2.0664 147.271 1.6186C148.883 1.1708 150.764 0.946899 152.914 0.946899ZM147.854 27.0536C148.54 27.0536 149.182 26.7551 149.779 26.158C150.406 25.5311 150.973 24.7102 151.481 23.6951C152.018 22.6503 152.496 21.4711 152.914 20.1575C153.361 18.844 153.735 17.4856 154.033 16.0825C154.332 14.6794 154.556 13.2913 154.705 11.918C154.884 10.5149 154.974 9.24613 154.974 8.1117C154.974 6.55933 154.809 5.49953 154.481 4.93232C154.182 4.33525 153.735 4.03672 153.138 4.03672C152.451 4.03672 151.794 4.33525 151.167 4.93232C150.54 5.52939 149.943 6.33543 149.376 7.35044C148.839 8.3356 148.346 9.48495 147.898 10.7985C147.48 12.0822 147.107 13.4107 146.779 14.7839C146.48 16.1572 146.241 17.5155 146.062 18.8589C145.913 20.2023 145.838 21.4412 145.838 22.5756C145.838 24.2773 146.018 25.4565 146.376 26.1133C146.764 26.7402 147.256 27.0536 147.854 27.0536Z" fill="#F26F21"/>
<path d="M190.642 4.79798H183.433L178.104 29.83H168.431L173.76 4.79798H166.64L167.446 1.3947H191.403L190.642 4.79798Z" fill="#F26F21"/>
<path d="M215.481 4.79798H208.272L202.943 29.83H193.27L198.599 4.79798H191.479L192.285 1.3947H216.242L215.481 4.79798Z" fill="#F26F21"/>
<path d="M219.094 1.3947H237.947L237.23 4.79798H228.095L226.214 13.4405H233.872L233.155 16.799H225.498L223.438 26.3819H232.573L231.901 29.83H213.049L219.094 1.3947Z" fill="#F26F21"/>
</svg>
